3umbra-9.ufo
<glyph name="ampersand" format="1">
  <advance width="487"/>
  <unicode hex="0026"/>
  <outline>
    <contour>
      <point x="-10" y="158" type="line"/>
      <point x="-43" y="158" type="line" smooth="yes"/>
      <point x="-91" y="158"/>
      <point x="-125" y="147"/>
      <point x="-125" y="109" type="curve" smooth="yes"/>
      <point x="-125" y="78"/>
      <point x="-98" y="59"/>
      <point x="-65" y="59" type="curve" smooth="yes"/>
      <point x="-42" y="59"/>
      <point x="-10" y="72"/>
      <point x="-10" y="103" type="curve" smooth="yes"/>
    </contour>
    <contour>
      <point x="-100" y="306" type="curve" smooth="yes"/>
      <point x="-100" y="278"/>
      <point x="-91" y="253"/>
      <point x="-43" y="253" type="curve" smooth="yes"/>
      <point x="157" y="253" type="line"/>
      <point x="157" y="158" type="line"/>
      <point x="105" y="158" type="line"/>
      <point x="109" y="142"/>
      <point x="110" y="120"/>
      <point x="110" y="76" type="curve" smooth="yes"/>
      <point x="110" y="-19"/>
      <point x="16" y="-66"/>
      <point x="-73" y="-66" type="curve" smooth="yes"/>
      <point x="-160" y="-66"/>
      <point x="-265" y="-16"/>
      <point x="-265" y="101" type="curve" smooth="yes"/>
      <point x="-265" y="157"/>
      <point x="-234" y="196"/>
      <point x="-180" y="216" type="curve"/>
      <point x="-225" y="234"/>
      <point x="-251" y="267"/>
      <point x="-251" y="322" type="curve" smooth="yes"/>
      <point x="-251" y="419"/>
      <point x="-166" y="464"/>
      <point x="-79" y="464" type="curve" smooth="yes"/>
      <point x="8" y="464"/>
      <point x="68" y="414"/>
      <point x="88" y="387" type="curve"/>
      <point x="48" y="297" type="line"/>
      <point x="8" y="335"/>
      <point x="-30" y="344"/>
      <point x="-58" y="344" type="curve" smooth="yes"/>
      <point x="-86" y="344"/>
      <point x="-100" y="329"/>
    </contour>
  </outline>
</glyph>
<glyph name="parenright" format="1">
  <advance width="232"/>
  <unicode hex="0029"/>
  <outline>
    <contour>
      <point x="-210" y="500" type="line"/>
      <point x="-135" y="415"/>
      <point x="-98" y="310"/>
      <point x="-98" y="205" type="curve" smooth="yes"/>
      <point x="-98" y="100"/>
      <point x="-135" y="-5"/>
      <point x="-210" y="-90" type="curve"/>
      <point x="-300" y="-90" type="line"/>
      <point x="-250" y="-15"/>
      <point x="-226" y="95"/>
      <point x="-226" y="205" type="curve" smooth="yes"/>
      <point x="-226" y="315"/>
      <point x="-250" y="425"/>
      <point x="-300" y="500" type="curve"/>
    </contour>
  </outline>
</glyph>
<glyph name="comma" format="1">
  <advance width="220"/>
  <unicode hex="002C"/>
  <outline>
    <contour>
      <point x="-255" y="-171" type="line"/>
      <point x="-255" y="89" type="line"/>
      <point x="-125" y="89" type="line"/>
      <point x="-125" y="-51" type="line"/>
    </contour>
  </outline>
</glyph>
<glyph name="period" format="1">
  <advance width="291"/>
  <unicode hex="002E"/>
  <outline>
    <contour>
      <point x="-155" y="-79" type="line"/>
      <point x="-260" y="26" type="line"/>
      <point x="-155" y="132" type="line"/>
      <point x="-49" y="26" type="line"/>
    </contour>
  </outline>
</glyph>
<glyph name="four" format="1">
  <advance width="490"/>
  <unicode hex="0034"/>
  <outline>
    <contour>
      <point x="-45" y="44" type="line"/>
      <point x="-122" y="44"/>
      <point x="-198" y="44"/>
      <point x="-275" y="44" type="curve"/>
      <point x="-295" y="114" type="line"/>
      <point x="-5" y="449" type="line"/>
      <point x="95" y="449" type="line"/>
      <point x="95" y="349"/>
      <point x="95" y="249"/>
      <point x="95" y="149" type="curve"/>
      <point x="165" y="149" type="line"/>
      <point x="165" y="44" type="line"/>
      <point x="95" y="44" type="line"/>
      <point x="95" y="-51" type="line"/>
      <point x="-45" y="-51" type="line"/>
    </contour>
    <contour>
      <point x="-34" y="149" type="line"/>
      <point x="-34" y="281" type="line"/>
      <point x="-148" y="149" type="line"/>
    </contour>
  </outline>
</glyph>
<glyph name="at" format="1">
  <advance width="700"/>
  <unicode hex="0040"/>
  <outline>
    <contour>
      <point x="380" y="169" type="curve" smooth="yes"/>
      <point x="380" y="39"/>
      <point x="333" y="-63"/>
      <point x="206" y="-63" type="curve" smooth="yes"/>
      <point x="159" y="-63"/>
      <point x="114" y="-52"/>
      <point x="99" y="-6" type="curve"/>
      <point x="75" y="-33"/>
      <point x="43" y="-51"/>
      <point x="7" y="-51" type="curve" smooth="yes"/>
      <point x="-100" y="-51"/>
      <point x="-145" y="44"/>
      <point x="-145" y="131" type="curve" smooth="yes"/>
      <point x="-145" y="218"/>
      <point x="-90" y="314"/>
      <point x="-3" y="314" type="curve" smooth="yes"/>
      <point x="34" y="314"/>
      <point x="67" y="297"/>
      <point x="94" y="271" type="curve"/>
      <point x="94" y="304" type="line"/>
      <point x="229" y="304" type="line"/>
      <point x="229" y="59" type="line" smooth="yes"/>
      <point x="229" y="31"/>
      <point x="231" y="22"/>
      <point x="246" y="22" type="curve" smooth="yes"/>
      <point x="274" y="22"/>
      <point x="295" y="89"/>
      <point x="295" y="169" type="curve" smooth="yes"/>
      <point x="295" y="342"/>
      <point x="177" y="399"/>
      <point x="55" y="399" type="curve" smooth="yes"/>
      <point x="-57" y="399"/>
      <point x="-195" y="312"/>
      <point x="-195" y="139" type="curve" smooth="yes"/>
      <point x="-195" y="-64"/>
      <point x="-67" y="-116"/>
      <point x="85" y="-116" type="curve"/>
      <point x="85" y="-181" type="line"/>
      <point x="-140" y="-181"/>
      <point x="-280" y="-80"/>
      <point x="-280" y="139" type="curve" smooth="yes"/>
      <point x="-280" y="328"/>
      <point x="-130" y="469"/>
      <point x="55" y="469" type="curve" smooth="yes"/>
      <point x="250" y="469"/>
      <point x="380" y="338"/>
    </contour>
    <contour>
      <point x="94" y="78" type="curve"/>
      <point x="94" y="185" type="line"/>
      <point x="77" y="203"/>
      <point x="53" y="209"/>
      <point x="37" y="209" type="curve" smooth="yes"/>
      <point x="9" y="209"/>
      <point x="-10" y="179"/>
      <point x="-10" y="131" type="curve" smooth="yes"/>
      <point x="-10" y="83"/>
      <point x="9" y="54"/>
      <point x="37" y="54" type="curve" smooth="yes"/>
      <point x="53" y="54"/>
      <point x="77" y="61"/>
    </contour>
  </outline>
</glyph>
<glyph name="G" format="1">
  <advance width="555"/>
  <unicode hex="0047"/>
  <outline>
    <contour>
      <point x="-125" y="199" type="curve" smooth="yes"/>
      <point x="-125" y="106"/>
      <point x="-52" y="54"/>
      <point x="5" y="54" type="curve" smooth="yes"/>
      <point x="39" y="54"/>
      <point x="67" y="61"/>
      <point x="90" y="73" type="curve"/>
      <point x="90" y="144" type="line"/>
      <point x="-20" y="144" type="line"/>
      <point x="-20" y="239" type="line"/>
      <point x="220" y="239" type="line"/>
      <point x="220" y="23" type="line"/>
      <point x="168" y="-29"/>
      <point x="86" y="-71"/>
      <point x="5" y="-71" type="curve" smooth="yes"/>
      <point x="-150" y="-71"/>
      <point x="-270" y="50"/>
      <point x="-270" y="199" type="curve" smooth="yes"/>
      <point x="-270" y="348"/>
      <point x="-160" y="469"/>
      <point x="15" y="469" type="curve" smooth="yes"/>
      <point x="96" y="469"/>
      <point x="143" y="447"/>
      <point x="175" y="415" type="curve"/>
      <point x="135" y="288" type="line"/>
      <point x="110" y="321"/>
      <point x="66" y="344"/>
      <point x="5" y="344" type="curve" smooth="yes"/>
      <point x="-52" y="344"/>
      <point x="-125" y="292"/>
    </contour>
  </outline>
</glyph>
<glyph name="I" format="1">
  <advance width="230"/>
  <unicode hex="0049"/>
  <outline>
    <contour>
      <point x="-255" y="-51" type="line"/>
      <point x="-255" y="449" type="line"/>
      <point x="-115" y="449" type="line"/>
      <point x="-115" y="-51" type="line"/>
    </contour>
  </outline>
</glyph>
<glyph name="K" format="1">
  <advance width="525"/>
  <unicode hex="004B"/>
  <outline>
    <contour>
      <point x="-255" y="-51" type="line"/>
      <point x="-255" y="449" type="line"/>
      <point x="-115" y="449" type="line"/>
      <point x="-115" y="242" type="line"/>
      <point x="45" y="449" type="line"/>
      <point x="215" y="449" type="line"/>
      <point x="35" y="229" type="line"/>
      <point x="225" y="-51" type="line"/>
      <point x="45" y="-51" type="line"/>
      <point x="-115" y="185" type="line"/>
      <point x="-115" y="-51" type="line"/>
    </contour>
  </outline>
</glyph>
<glyph name="N" format="1">
  <advance width="590"/>
  <unicode hex="004E"/>
  <outline>
    <contour>
      <point x="-255" y="-51" type="line"/>
      <point x="-255" y="449" type="line"/>
      <point x="-85" y="449" type="line"/>
      <point x="105" y="132" type="line"/>
      <point x="105" y="449" type="line"/>
      <point x="245" y="449" type="line"/>
      <point x="245" y="-51" type="line"/>
      <point x="75" y="-51" type="line"/>
      <point x="-115" y="266" type="line"/>
      <point x="-115" y="-51" type="line"/>
    </contour>
  </outline>
</glyph>
<glyph name="P" format="1">
  <advance width="487"/>
  <unicode hex="0050"/>
  <outline>
    <contour>
      <point x="-255" y="-51" type="line"/>
      <point x="-255" y="449" type="line"/>
      <point x="-182" y="449"/>
      <point x="-108" y="449"/>
      <point x="-35" y="449" type="curve" smooth="yes"/>
      <point x="82" y="449"/>
      <point x="167" y="374"/>
      <point x="167" y="267" type="curve" smooth="yes"/>
      <point x="167" y="150"/>
      <point x="82" y="84"/>
      <point x="-35" y="84" type="curve" smooth="yes"/>
      <point x="-115" y="84" type="line"/>
      <point x="-115" y="-51" type="line"/>
    </contour>
    <contour>
      <point x="-45" y="334" type="curve" smooth="yes"/>
      <point x="-115" y="334" type="line"/>
      <point x="-115" y="199" type="line"/>
      <point x="-45" y="199" type="line" smooth="yes"/>
      <point x="-7" y="199"/>
      <point x="22" y="219"/>
      <point x="22" y="267" type="curve" smooth="yes"/>
      <point x="22" y="315"/>
      <point x="-7" y="334"/>
    </contour>
  </outline>
</glyph>
<glyph name="Q" format="1">
  <advance width="610"/>
  <unicode hex="0051"/>
  <outline>
    <contour>
      <point x="-270" y="199" type="curve" smooth="yes"/>
      <point x="-270" y="348"/>
      <point x="-170" y="469"/>
      <point x="5" y="469" type="curve" smooth="yes"/>
      <point x="180" y="469"/>
      <point x="280" y="348"/>
      <point x="280" y="199" type="curve" smooth="yes"/>
      <point x="280" y="83"/>
      <point x="220" y="-16"/>
      <point x="111" y="-54" type="curve"/>
      <point x="265" y="-201" type="line"/>
      <point x="65" y="-201" type="line"/>
      <point x="-49" y="-67" type="line"/>
      <point x="-190" y="-45"/>
      <point x="-270" y="66"/>
    </contour>
    <contour>
      <point x="-125" y="199" type="curve" smooth="yes"/>
      <point x="-125" y="106"/>
      <point x="-57" y="54"/>
      <point x="5" y="54" type="curve" smooth="yes"/>
      <point x="67" y="54"/>
      <point x="135" y="106"/>
      <point x="135" y="199" type="curve" smooth="yes"/>
      <point x="135" y="292"/>
      <point x="67" y="344"/>
      <point x="5" y="344" type="curve" smooth="yes"/>
      <point x="-57" y="344"/>
      <point x="-125" y="292"/>
    </contour>
  </outline>
</glyph>
<glyph name="U" format="1">
  <advance width="554"/>
  <unicode hex="0055"/>
  <outline>
    <contour>
      <point x="-115" y="171" type="line" smooth="yes"/>
      <point x="-115" y="103"/>
      <point x="-81" y="64"/>
      <point x="-23" y="64" type="curve" smooth="yes"/>
      <point x="35" y="64"/>
      <point x="69" y="103"/>
      <point x="69" y="171" type="curve" smooth="yes"/>
      <point x="69" y="449" type="line"/>
      <point x="209" y="449" type="line"/>
      <point x="209" y="171" type="line" smooth="yes"/>
      <point x="209" y="24"/>
      <point x="134" y="-61"/>
      <point x="-23" y="-61" type="curve" smooth="yes"/>
      <point x="-180" y="-61"/>
      <point x="-255" y="34"/>
      <point x="-255" y="171" type="curve" smooth="yes"/>
      <point x="-255" y="449" type="line"/>
      <point x="-115" y="449" type="line"/>
    </contour>
  </outline>
</glyph>
<glyph name="Z" format="1">
  <advance width="580"/>
  <unicode hex="005A"/>
  <outline>
    <contour>
      <point x="-220" y="334" type="line"/>
      <point x="-220" y="449" type="line"/>
      <point x="270" y="449" type="line"/>
      <point x="-26" y="69" type="line"/>
      <point x="230" y="69" type="line"/>
      <point x="230" y="-51" type="line"/>
      <point x="-280" y="-51" type="line"/>
      <point x="20" y="334" type="line"/>
    </contour>
  </outline>
</glyph>
<glyph name="b" format="1">
  <advance width="499"/>
  <unicode hex="0062"/>
  <outline>
    <contour>
      <point x="-260" y="-51" type="line"/>
      <point x="-260" y="479" type="line"/>
      <point x="-125" y="479" type="line"/>
      <point x="-125" y="295" type="line"/>
      <point x="-94" y="326"/>
      <point x="-53" y="344"/>
      <point x="-8" y="344" type="curve" smooth="yes"/>
      <point x="99" y="344"/>
      <point x="164" y="258"/>
      <point x="164" y="141" type="curve" smooth="yes"/>
      <point x="164" y="24"/>
      <point x="99" y="-61"/>
      <point x="-8" y="-61" type="curve" smooth="yes"/>
      <point x="-53" y="-61"/>
      <point x="-94" y="-41"/>
      <point x="-125" y="-9" type="curve"/>
      <point x="-125" y="-51" type="line"/>
    </contour>
    <contour>
      <point x="-125" y="82" type="line"/>
      <point x="-106" y="58"/>
      <point x="-77" y="44"/>
      <point x="-48" y="44" type="curve" smooth="yes"/>
      <point x="0" y="44"/>
      <point x="29" y="83"/>
      <point x="29" y="141" type="curve" smooth="yes"/>
      <point x="29" y="199"/>
      <point x="0" y="239"/>
      <point x="-48" y="239" type="curve" smooth="yes"/>
      <point x="-77" y="239"/>
      <point x="-106" y="224"/>
      <point x="-125" y="200" type="curve"/>
    </contour>
  </outline>
</glyph>
<glyph name="g" format="1">
  <advance width="489"/>
  <unicode hex="0067"/>
  <outline>
    <contour>
      <point x="14" y="7" type="line"/>
      <point x="-17" y="-23"/>
      <point x="-58" y="-41"/>
      <point x="-103" y="-41" type="curve" smooth="yes"/>
      <point x="-210" y="-41"/>
      <point x="-265" y="44"/>
      <point x="-265" y="151" type="curve" smooth="yes"/>
      <point x="-265" y="258"/>
      <point x="-210" y="344"/>
      <point x="-103" y="344" type="curve" smooth="yes"/>
      <point x="-58" y="344"/>
      <point x="-17" y="328"/>
      <point x="14" y="299" type="curve"/>
      <point x="14" y="334" type="line"/>
      <point x="149" y="334" type="line"/>
      <point x="149" y="-91" type="line" smooth="yes"/>
      <point x="149" y="-188"/>
      <point x="54" y="-243"/>
      <point x="-33" y="-243" type="curve" smooth="yes"/>
      <point x="-110" y="-243"/>
      <point x="-180" y="-218"/>
      <point x="-240" y="-181" type="curve"/>
      <point x="-200" y="-81" type="line"/>
      <point x="-150" y="-119"/>
      <point x="-91" y="-133"/>
      <point x="-53" y="-133" type="curve" smooth="yes"/>
      <point x="-5" y="-133"/>
      <point x="14" y="-119"/>
      <point x="14" y="-61" type="curve" smooth="yes"/>
    </contour>
    <contour>
      <point x="14" y="207" type="line"/>
      <point x="-5" y="228"/>
      <point x="-34" y="239"/>
      <point x="-63" y="239" type="curve" smooth="yes"/>
      <point x="-111" y="239"/>
      <point x="-130" y="199"/>
      <point x="-130" y="151" type="curve" smooth="yes"/>
      <point x="-130" y="103"/>
      <point x="-111" y="64"/>
      <point x="-63" y="64" type="curve" smooth="yes"/>
      <point x="-34" y="64"/>
      <point x="-5" y="75"/>
      <point x="14" y="96" type="curve"/>
    </contour>
  </outline>
</glyph>
<glyph name="i" format="1">
  <advance width="271"/>
  <unicode hex="0069"/>
  <outline>
    <contour>
      <point x="-232" y="-51" type="line"/>
      <point x="-232" y="334" type="line"/>
      <point x="-97" y="334" type="line"/>
      <point x="-97" y="-51" type="line"/>
    </contour>
    <contour>
      <point x="-165" y="391" type="line"/>
      <point x="-260" y="486" type="line"/>
      <point x="-165" y="582" type="line"/>
      <point x="-69" y="486" type="line"/>
    </contour>
  </outline>
</glyph>
<glyph name="q" format="1">
  <advance width="499"/>
  <unicode hex="0071"/>
  <outline>
    <contour>
      <point x="164" y="334" type="line"/>
      <point x="164" y="-196" type="line"/>
      <point x="29" y="-196" type="line"/>
      <point x="29" y="-12" type="line"/>
      <point x="-2" y="-43"/>
      <point x="-43" y="-61"/>
      <point x="-88" y="-61" type="curve" smooth="yes"/>
      <point x="-195" y="-61"/>
      <point x="-260" y="25"/>
      <point x="-260" y="142" type="curve" smooth="yes"/>
      <point x="-260" y="259"/>
      <point x="-195" y="344"/>
      <point x="-88" y="344" type="curve" smooth="yes"/>
      <point x="-43" y="344"/>
      <point x="-2" y="324"/>
      <point x="29" y="292" type="curve"/>
      <point x="29" y="334" type="line"/>
    </contour>
    <contour>
      <point x="29" y="201" type="line"/>
      <point x="10" y="225"/>
      <point x="-19" y="239"/>
      <point x="-48" y="239" type="curve" smooth="yes"/>
      <point x="-96" y="239"/>
      <point x="-125" y="200"/>
      <point x="-125" y="142" type="curve" smooth="yes"/>
      <point x="-125" y="84"/>
      <point x="-96" y="44"/>
      <point x="-48" y="44" type="curve" smooth="yes"/>
      <point x="-19" y="44"/>
      <point x="10" y="59"/>
      <point x="29" y="83" type="curve"/>
    </contour>
  </outline>
</glyph>
<glyph name="v" format="1">
  <advance width="465"/>
  <unicode hex="0076"/>
  <outline>
    <contour>
      <point x="-140" y="-51" type="line"/>
      <point x="-290" y="334" type="line"/>
      <point x="-145" y="334" type="line"/>
      <point x="-64" y="50" type="line"/>
      <point x="10" y="334" type="line"/>
      <point x="155" y="334" type="line"/>
      <point x="15" y="-51" type="line"/>
    </contour>
  </outline>
</glyph>
<glyph name="quoteright" format="1">
  <advance width="220"/>
  <unicode hex="2019"/>
  <outline>
    <contour>
      <point x="-255" y="189" type="line"/>
      <point x="-255" y="449" type="line"/>
      <point x="-125" y="449" type="line"/>
      <point x="-125" y="309" type="line"/>
    </contour>
  </outline>
</glyph>
